<mxfile host="app.diagrams.net" modified="2023-03-31T10:29:17.778Z" agent="Mozilla/5.0 (Macintosh; Intel Mac OS X 10.15; rv:109.0) Gecko/20100101 Firefox/111.0" version="21.1.2" etag="QJ9_epTzgGrQNO9Y7Wzp" type="github">
  <diagram name="第 1 页" id="RJTiuJ3OsstrHwi_qVZL">
    <mxGraphModel>
      <root>
        <mxCell id="0" />
        <mxCell id="1" parent="0" />
      </root>
    </mxGraphModel>
  </diagram>
</mxfile>
